<svg id="Layer_1" data-name="Layer 1" xmlns="http://www.w3.org/2000/svg" viewBox="0 0 100 100"><defs><style>.cls-1{fill:#037c42;}.cls-2{fill:#f1f2f2;}</style></defs><rect class="cls-1" width="100" height="100"/><path class="cls-2" d="M81.85,64.65a12.28,12.28,0,0,0,2-.65l-1.26,1.24a14.69,14.69,0,0,1-6,1.13c-1.55,0-3.27-.45-4.09-1.82a4.15,4.15,0,0,1-.32-3.1,11.7,11.7,0,0,1,1.35-2.86c4.23-7.09,14.87-21.54,14.87-21.54s-.93.51-1.26.64c-1.25.46-13,9.09-14,9.8-5.56,4-13.78,13.85-13.78,13.85l-5.87,1.57,7.43-11c1.43-2.11,2.84-4.24,4.17-6.43a28.46,28.46,0,0,0,3.33-6.58,4.53,4.53,0,0,0,.17-2.39c-.4-1.5-1.94-1.75-3.17-1.47a21.16,21.16,0,0,0-9.9,5.6,48.15,48.15,0,0,0-6.4,7.14A1.64,1.64,0,0,0,49,48L47,48l.41-.54a35,35,0,0,1,5.69-6.67,29.16,29.16,0,0,1,9.28-5.74A22.46,22.46,0,0,1,69,33.7c1.61-.08,5-.41,5.9,1.39.82,1.56-.58,3.95-1.28,5.31-1.85,3.69-4.52,6.66-6.56,10.23-.3.52-2.06,3.2-2.53,4,2.52-2.39,7-6.8,9.71-9a98.43,98.43,0,0,1,8.58-6.26,26.13,26.13,0,0,1,3.91-2.32A26.76,26.76,0,0,1,95,34.53c-5.67,8.16-11.41,16.25-16.23,25-.71,1.3-1.4,2.94-.62,4.18S80.53,65,81.85,64.65Z"/><path class="cls-2" d="M38.47,58.35c-3.74,2.32-7.28,4.4-11.58,5.52a30.45,30.45,0,0,1-15.77.2,7.65,7.65,0,0,1-5.52-4.7A8.9,8.9,0,0,1,6,52.12a29.75,29.75,0,0,1,9.8-10.43,36.59,36.59,0,0,1,10-4.81,38.45,38.45,0,0,1,14-1.85c2,.12,3.94.54,5.91.84a6.88,6.88,0,0,1,.87.35c-2,1.81-4.36,3.76-6.35,5.57l-.75-.49c1.05-.82,1.94-1.82,3-2.67,0,0,0,0,0-.07s0-.08-.1-.1a39.16,39.16,0,0,0-7-1.7h0l-.29,0a16.78,16.78,0,0,0-3.09,0,21.62,21.62,0,0,0-10.2,3.54c-3.24,2.21-5.89,4.58-7.67,8.21-1.44,2.94-2.87,6-1.83,9.42,2.41,7.9,12.32,6,18.44,3.16A26.41,26.41,0,0,0,35.56,58L37,58.2C38.44,58.32,38.19,58.33,38.47,58.35Z"/></svg>